<svg xmlns="http://www.w3.org/2000/svg" width="1280" height="640" viewBox="0 0 1280 640">
  <defs>
    <linearGradient id="bgGrad" x1="0%" y1="0%" x2="100%" y2="100%">
      <stop offset="0%" style="stop-color:#326ce5"/>
      <stop offset="100%" style="stop-color:#1a4ba8"/>
    </linearGradient>
    <linearGradient id="accent" x1="0%" y1="0%" x2="100%" y2="0%">
      <stop offset="0%" style="stop-color:#326ce5"/>
      <stop offset="100%" style="stop-color:#1a4ba8"/>
    </linearGradient>
  </defs>
  <rect width="1280" height="640" fill="#ffffff"/>
  <pattern id="grid" width="40" height="40" patternUnits="userSpaceOnUse">
    <path d="M 40 0 L 0 0 0 40" fill="none" stroke="#326ce5" stroke-width="0.2" stroke-opacity="0.07"/>
  </pattern>
  <rect width="1280" height="640" fill="url(#grid)"/>
  <rect x="0" y="0" width="1280" height="4" fill="url(#accent)"/>
  <ellipse cx="210" cy="320" rx="280" ry="240" fill="#326ce5" opacity="0.04"/>
  <!-- Logo circle with K8s wheel -->
  <circle cx="170" cy="320" r="130" fill="url(#bgGrad)"/>
  <g transform="translate(170,298) scale(0.128) translate(-389,-530)">
    <path fill="#ffffff" d="m 389.46729,272.05685 c -8.45813,8.6e-4 -15.31619,7.61928 -15.31519,17.01687 10e-6,0.14423 0.0295,0.28205 0.0327,0.42542 -0.0125,1.27691 -0.0741,2.81523 -0.0327,3.92697 0.20171,5.42027 1.38324,9.56871 2.09439,14.56252 1.28834,10.68834 2.36788,19.54832 1.70169,27.78333 -0.64789,3.10534 -2.93516,5.94534 -4.97417,7.91939 l -0.35997,6.4795 c -9.19102,0.76149 -18.44352,2.1559 -27.68515,4.25422 -39.76672,9.02908 -74.00517,29.5131 -100.07232,57.17016 -1.69145,-1.15393 -4.65062,-3.27681 -5.53054,-3.92697 -2.7344,0.36926 -5.49798,1.21295 -9.09748,-0.88357 -6.85378,-4.61354 -13.09606,-10.98183 -20.64933,-18.65311 -3.46095,-3.66956 -5.96724,-7.16386 -10.07923,-10.701 -0.9338,-0.80327 -2.35888,-1.88971 -3.40337,-2.71616 -3.21476,-2.56307 -7.00645,-3.89976 -10.66827,-4.02514 -4.70807,-0.16121 -9.24037,1.67954 -12.20634,5.39958 -5.27283,6.61342 -3.58466,16.72163 3.76335,22.58009 0.0746,0.0594 0.15396,0.10554 0.22907,0.16362 1.00973,0.81851 2.24619,1.86728 3.1743,2.55254 4.36352,3.22174 8.34948,4.87096 12.69721,7.42852 9.15979,5.65673 16.75337,10.34716 22.77644,16.00241 2.35201,2.50715 2.7631,6.925 3.07612,8.83568 l 4.90872,4.38512 c -26.27764,39.54584 -38.43915,88.39294 -31.2521,138.16395 l -6.41405,1.86531 c -1.69048,2.18299 -4.07925,5.61791 -6.57773,6.64313 -7.88026,2.48206 -16.74905,3.39352 -27.45608,4.51601 -5.02684,0.41799 -9.36418,0.16855 -14.69342,1.17809 -1.17293,0.2222 -2.80722,0.64798 -4.09059,0.94902 -0.0446,0.009 -0.0863,0.0226 -0.1309,0.0327 -0.07,0.0162 -0.16185,0.0502 -0.22907,0.0654 -9.02695,2.18109 -14.82588,10.47821 -12.95901,18.65312 1.86731,8.17682 10.68465,13.14935 19.76576,11.19187 0.0656,-0.015 0.16074,-0.0175 0.22907,-0.0327 0.10252,-0.0235 0.19278,-0.0732 0.29452,-0.0981 1.2659,-0.27788 2.85232,-0.58705 3.9597,-0.88357 5.23946,-1.40285 9.03407,-3.46407 13.7444,-5.26868 10.13362,-3.63457 18.52665,-6.67085 26.70341,-7.85395 3.41508,-0.26747 7.01316,2.10712 8.80296,3.10886 l 6.67585,-1.14537 c 15.3625,47.62926 47.55736,86.12636 88.32413,110.28245 l -2.7816,6.67585 c 1.0026,2.59224 2.10843,6.09958 1.36158,8.65957 -2.97265,7.70859 -8.0644,15.84504 -13.86244,24.91604 -2.80737,4.19078 -5.68053,7.44303 -8.21392,12.23906 -0.60622,1.14761 -1.37829,2.91048 -1.96348,4.12332 -3.93623,8.4219 -1.04891,18.12187 6.51223,21.76197 7.60863,3.66295 17.05297,-0.20037 21.14019,-8.63934 0.006,-0.0119 0.0269,-0.0207 0.0327,-0.0327 0.004,-0.009 -0.004,-0.0236 0,-0.0327 0.58217,-1.19647 1.40694,-2.76916 1.89804,-3.89424 2.16992,-4.97105 2.89194,-9.23107 4.41784,-14.03893 4.05224,-10.17885 6.27862,-20.85905 11.85692,-27.51404 1.52752,-1.82236 4.01788,-2.52321 6.59985,-3.21451 l 3.46882,-6.28315 c 35.53987,13.64156 75.32106,17.30219 115.06027,8.27936 9.06551,-2.05833 17.81739,-4.72226 26.27798,-7.91939 0.97492,1.72926 2.78672,5.05344 3.27248,5.89046 2.62384,0.85365 5.48775,1.29447 7.82122,4.74509 4.17347,7.13031 7.0276,15.56563 10.50465,25.75439 1.52615,4.80777 2.28038,9.06798 4.45057,14.03892 0.49463,1.13301 1.31527,2.72779 1.89803,3.92697 4.07863,8.46638 13.55289,12.34291 21.17292,8.67206 7.56021,-3.64203 10.45071,-13.34112 6.51223,-21.76196 -0.58526,-1.2128 -1.38994,-2.97575 -1.99621,-4.12332 -2.53364,-4.79589 -5.40634,-8.01572 -8.21392,-12.20634 -5.79852,-9.0707 -10.60772,-16.60606 -13.58077,-24.3145 -1.24313,-3.97574 0.20973,-6.44834 1.17809,-9.03203 -0.57991,-0.66473 -1.82087,-4.41925 -2.55253,-6.18498 42.36668,-25.0155 73.61612,-64.94823 88.29141,-111.06785 1.9817,0.31146 5.42607,0.92086 6.54495,1.14537 2.30334,-1.51916 4.42118,-3.50131 8.57389,-3.1743 8.17681,1.18266 16.5696,4.2199 26.7034,7.85394 4.71043,1.80438 8.50488,3.89883 13.7444,5.30141 1.1074,0.29645 2.69378,0.57303 3.9597,0.85085 0.10179,0.0249 0.19195,0.0748 0.29452,0.0981 0.0684,0.0153 0.16352,0.0177 0.22908,0.0327 9.08163,1.95506 17.90054,-3.01456 19.76575,-11.19187 1.86478,-8.17539 -3.93147,-16.47444 -12.959,-18.65311 -1.31311,-0.29859 -3.17535,-0.80569 -4.45057,-1.0472 -5.32929,-1.00926 -9.66655,-0.76036 -14.69342,-1.17809 -10.70708,-1.12194 -19.57569,-2.03437 -27.45607,-4.51601 -3.21306,-1.24646 -5.49884,-5.06971 -6.61046,-6.64313 l -6.18498,-1.79986 c 3.20678,-23.19994 2.3421,-47.34497 -3.20703,-71.50361 -5.60079,-24.38357 -15.49883,-46.68472 -28.69961,-66.33309 1.58655,-1.44229 4.58271,-4.09548 5.43231,-4.87599 0.24835,-2.74801 0.035,-5.62922 2.87978,-8.67206 6.02276,-5.65557 13.61694,-10.3452 22.77643,-16.00241 4.3476,-2.55779 8.36659,-4.20655 12.72993,-7.42852 0.98672,-0.7286 2.33409,-1.88243 3.37065,-2.71616 7.34646,-5.86043 9.03788,-15.96803 3.76335,-22.58009 -5.27453,-6.61205 -15.49543,-7.23487 -22.84188,-1.37444 -1.04569,0.82818 -2.4646,1.90853 -3.40338,2.71616 -4.1118,3.53737 -6.65119,7.03126 -10.11195,10.701 -7.55286,7.67168 -13.79578,14.07193 -20.64932,18.68584 -2.96985,1.72897 -7.31984,1.13073 -9.29389,1.01446 l -5.82501,4.15605 C 500.27311,376.86318 455.0492,354.59475 406.3533,350.26897 c -0.1362,-2.04069 -0.31463,-5.72937 -0.35997,-6.83948 -1.99355,-1.90762 -4.40179,-3.53622 -5.00689,-7.65759 -0.66619,-8.23501 0.44607,-17.09499 1.73441,-27.78333 0.71115,-4.99381 1.89268,-9.14225 2.09439,-14.56252 0.0459,-1.23215 -0.0277,-3.02011 -0.0327,-4.35239 -10e-4,-9.39759 -6.85705,-17.01772 -15.31518,-17.01687 z"/>
  </g>
  <text x="170" y="420" font-family="Inter, system-ui, sans-serif" font-size="22" font-weight="300" fill="#ffffff" text-anchor="middle" letter-spacing="6">MCP</text>

  <!-- Title -->
  <text x="360" y="265" font-family="Inter, -apple-system, 'Segoe UI', sans-serif" font-size="90" font-weight="700" fill="#326ce5" letter-spacing="-1">Kubernetes MCP</text>

  <!-- Subtitle -->
  <text x="362" y="318" font-family="Inter, -apple-system, 'Segoe UI', sans-serif" font-size="26" font-weight="400" fill="#64748b">Connect AI assistants to your Kubernetes clusters</text>

  <!-- Divider -->
  <rect x="362" y="344" width="820" height="2" fill="#326ce5" opacity="0.2" rx="1"/>

  <!-- Row 1 pills -->
  <rect x="362" y="390" width="160" height="36" rx="18" fill="#f0fdf4" stroke="#22c55e" stroke-width="1.5"/>
  <text x="442" y="414" font-family="Inter, system-ui, sans-serif" font-size="15" font-weight="600" fill="#16a34a" text-anchor="middle">yq filtering</text>

  <rect x="534" y="390" width="140" height="36" rx="18" fill="#fef3c7" stroke="#f59e0b" stroke-width="1.5"/>
  <text x="604" y="414" font-family="Inter, system-ui, sans-serif" font-size="15" font-weight="600" fill="#d97706" text-anchor="middle">Fine RBAC</text>

  <rect x="686" y="390" width="155" height="36" rx="18" fill="#eff6ff" stroke="#3b82f6" stroke-width="1.5"/>
  <text x="763" y="414" font-family="Inter, system-ui, sans-serif" font-size="15" font-weight="600" fill="#2563eb" text-anchor="middle">Multi-cluster</text>

  <rect x="853" y="390" width="130" height="36" rx="18" fill="#faf5ff" stroke="#a855f7" stroke-width="1.5"/>
  <text x="918" y="414" font-family="Inter, system-ui, sans-serif" font-size="15" font-weight="600" fill="#9333ea" text-anchor="middle">OAuth 2.1</text>

  <!-- Row 2 pills -->
  <rect x="362" y="444" width="150" height="36" rx="18" fill="#eff6ff" stroke="#326ce5" stroke-width="1.5"/>
  <text x="437" y="468" font-family="Inter, system-ui, sans-serif" font-size="15" font-weight="600" fill="#326ce5" text-anchor="middle">HTTP + Stdio</text>

  <rect x="524" y="444" width="150" height="36" rx="18" fill="#eff6ff" stroke="#326ce5" stroke-width="1.5"/>
  <text x="599" y="468" font-family="Inter, system-ui, sans-serif" font-size="15" font-weight="600" fill="#326ce5" text-anchor="middle">Docker ready</text>

  <rect x="686" y="444" width="140" height="36" rx="18" fill="#eff6ff" stroke="#326ce5" stroke-width="1.5"/>
  <text x="756" y="468" font-family="Inter, system-ui, sans-serif" font-size="15" font-weight="600" fill="#326ce5" text-anchor="middle">Helm chart</text>

  <!-- Bottom border -->
  <rect x="0" y="636" width="1280" height="4" fill="#326ce5" opacity="0.4"/>
</svg>
